<svg width="24" height="24" viewBox="0 0 24 24" fill="none" xmlns="http://www.w3.org/2000/svg">
<g clip-path="url(#clip0_461_8701)">
<path d="M4.66668 4.00033H15.3333V10.5337H16.6667V4.00033C16.6667 3.6467 16.5262 3.30756 16.2762 3.05752C16.0261 2.80747 15.687 2.66699 15.3333 2.66699H4.66668C4.31305 2.66699 3.97392 2.80747 3.72387 3.05752C3.47382 3.30756 3.33334 3.6467 3.33334 4.00033V20.0003C3.33334 20.3539 3.47382 20.6931 3.72387 20.9431C3.97392 21.1932 4.31305 21.3337 4.66668 21.3337H15.3333C15.687 21.3337 16.0261 21.1932 16.2762 20.9431C16.5262 20.6931 16.6667 20.3539 16.6667 20.0003H4.66668V4.00033Z" fill="#333333"/>
<path d="M18.7733 11.5197C18.6458 11.4105 18.4817 11.3534 18.314 11.3599C18.1462 11.3664 17.987 11.4359 17.8683 11.5546C17.7496 11.6734 17.68 11.8325 17.6735 12.0003C17.667 12.1681 17.7241 12.3321 17.8333 12.4597L20.0867 14.6663H10.42C10.2432 14.6663 10.0736 14.7366 9.94859 14.8616C9.82356 14.9866 9.75333 15.1562 9.75333 15.333C9.75333 15.5098 9.82356 15.6794 9.94859 15.8044C10.0736 15.9294 10.2432 15.9997 10.42 15.9997H20.0867L17.8333 18.3063C17.7635 18.3661 17.7069 18.4397 17.6668 18.5224C17.6268 18.6051 17.6043 18.6952 17.6008 18.787C17.5972 18.8788 17.6127 18.9703 17.6462 19.0559C17.6798 19.1414 17.7306 19.2191 17.7956 19.2841C17.8605 19.3491 17.9382 19.3999 18.0238 19.4334C18.1093 19.467 18.2009 19.4824 18.2927 19.4789C18.3845 19.4753 18.4746 19.4528 18.5573 19.4128C18.64 19.3728 18.7136 19.3161 18.7733 19.2463L22.6667 15.3797L18.7733 11.5197Z" fill="#333333"/>
</g>
<defs>
<clipPath id="clip0_461_8701">
<rect width="24" height="24" fill="white"/>
</clipPath>
</defs>
</svg>
