<svg width="136" height="136" viewBox="0 0 136 136" fill="none" xmlns="http://www.w3.org/2000/svg">
<path d="M93.6417 19.833H107.667C109.17 19.833 110.611 20.43 111.674 21.4927C112.736 22.5554 113.333 23.9968 113.333 25.4997V119C113.333 120.503 112.736 121.944 111.674 123.007C110.611 124.069 109.17 124.666 107.667 124.666H28.3333C26.8304 124.666 25.3891 124.069 24.3264 123.007C23.2637 121.944 22.6667 120.503 22.6667 119V25.4997C22.6667 23.9968 23.2637 22.5554 24.3264 21.4927C25.3891 20.43 26.8304 19.833 28.3333 19.833H48.1667V28.333H87.8333V19.833H93.6417Z" stroke="#A4A4A4" stroke-width="6" stroke-linejoin="round"/>
<path d="M76.5 53.833L53.8333 76.5025H82.178L59.5 99.1692M48.1667 11.333H87.8333V28.333H48.1667V11.333Z" stroke="#A4A4A4" stroke-width="6" stroke-linecap="round" stroke-linejoin="round"/>
</svg>
